<svg xmlns="http://www.w3.org/2000/svg" viewBox="0 0 512 512" width="512" height="512">
  <!-- V4 — MEPHISTO + BOOK (revised)
       Hat and book share the same dark geometric silhouette language.
       The eye is the only source of light.                          -->

  <!-- ░ BACKGROUND ░ -->
  <rect width="512" height="512" rx="88" fill="#0C0300"/>

  <!-- Thin border -->
  <rect x="18" y="18" width="476" height="476" rx="74"
        fill="none" stroke="#3D1004" stroke-width="1.4"/>

  <!-- ░ MEPHISTO HAT ░ -->
  <!-- Crown — tall pointed triangle -->
  <path d="M 256 68 L 194 246 L 318 246 Z"
        fill="#170600" stroke="#4A1506" stroke-width="1.4"
        stroke-linejoin="round"/>

  <!-- Brim — slightly wider than crown base -->
  <path d="M 166 246 L 346 246 L 340 270 L 172 270 Z"
        fill="#1C0800" stroke="#4A1506" stroke-width="1.4"
        stroke-linejoin="round"/>

  <!-- Feather — single curved stroke, right side -->
  <path d="M 312 218 C 328 202, 348 188, 364 174
           C 350 182, 332 198, 318 214 Z"
        fill="#260C02"/>

  <!-- ░ THE EYE ░
       The only light in the icon. Sits in the gap between hat and book. -->
  <circle cx="256" cy="268" r="34" fill="#F59E0B" opacity="0.09"/>
  <circle cx="256" cy="268" r="11" fill="#F59E0B" opacity="0.93"/>
  <circle cx="256" cy="268" r="5"  fill="#FEF3C7" opacity="0.97"/>

  <!-- ░ OPEN BOOK ░
       Same language as the hat: flat dark geometry, subtle amber stroke.
       Two trapezoidal pages meeting at the spine — no fill variation,
       no text lines, pure form.                                        -->

  <!-- Left page — slightly angled outward (perspective) -->
  <path d="M 256 286 L 256 454 L 62 442 L 62 290 Z"
        fill="#170600" stroke="#4A1506" stroke-width="1.4"
        stroke-linejoin="round"/>

  <!-- Right page — mirror -->
  <path d="M 256 286 L 450 290 L 450 442 L 256 454 Z"
        fill="#1C0800" stroke="#4A1506" stroke-width="1.4"
        stroke-linejoin="round"/>

  <!-- Spine — the crease between the pages -->
  <line x1="256" y1="286" x2="256" y2="454"
        stroke="#4A1506" stroke-width="1.8"/>

  <!-- Very faint amber glow at spine top — eye-light falling onto the book -->
  <ellipse cx="256" cy="290" rx="52" ry="10" fill="#F59E0B" opacity="0.10"/>
</svg>
